<svg width="200" height="200" viewBox="0 0 200 200" fill="none" xmlns="http://www.w3.org/2000/svg">
<g clip-path="url(#clip0_43_11)">
<rect width="200" height="200" rx="100" fill="white"/>
<path d="M24.4469 110.32C22.7189 110.32 21.0975 110 19.5829 109.36C18.0895 108.699 16.7775 107.792 15.6469 106.64C14.5375 105.467 13.6629 104.101 13.0229 102.544C12.4042 100.987 12.0949 99.3013 12.0949 97.488C12.0949 95.696 12.4042 94.032 13.0229 92.496C13.6629 90.9387 14.5375 89.584 15.6469 88.432C16.7775 87.2587 18.0895 86.3413 19.5829 85.68C21.0762 85.0187 22.6975 84.688 24.4469 84.688C26.0895 84.688 27.4975 84.9013 28.6709 85.328C29.8655 85.7547 31.0602 86.4587 32.2549 87.44C32.4255 87.568 32.5535 87.7067 32.6389 87.856C32.7455 87.984 32.8095 88.1227 32.8309 88.272C32.8735 88.4 32.8949 88.56 32.8949 88.752C32.8949 89.1573 32.7455 89.4987 32.4469 89.776C32.1695 90.032 31.8282 90.1813 31.4229 90.224C31.0175 90.2453 30.6229 90.1067 30.2389 89.808C29.4495 89.1253 28.6282 88.6027 27.7749 88.24C26.9429 87.8773 25.8335 87.696 24.4469 87.696C23.1882 87.696 22.0042 87.952 20.8949 88.464C19.7855 88.976 18.8042 89.68 17.9509 90.576C17.1189 91.472 16.4682 92.5173 15.9989 93.712C15.5295 94.8853 15.2949 96.144 15.2949 97.488C15.2949 98.8533 15.5295 100.133 15.9989 101.328C16.4682 102.501 17.1189 103.536 17.9509 104.432C18.8042 105.328 19.7855 106.032 20.8949 106.544C22.0042 107.035 23.1882 107.28 24.4469 107.28C25.5349 107.28 26.5589 107.099 27.5189 106.736C28.5002 106.352 29.4389 105.829 30.3349 105.168C30.7189 104.891 31.0922 104.773 31.4549 104.816C31.8389 104.837 32.1589 104.987 32.4149 105.264C32.6709 105.52 32.7989 105.883 32.7989 106.352C32.7989 106.565 32.7562 106.779 32.6709 106.992C32.5855 107.184 32.4575 107.365 32.2869 107.536C31.1349 108.453 29.8975 109.147 28.5749 109.616C27.2735 110.085 25.8975 110.32 24.4469 110.32ZM39.7539 110C39.2845 110 38.8899 109.851 38.5699 109.552C38.2712 109.232 38.1219 108.837 38.1219 108.368V94.128C38.1219 93.6373 38.2712 93.2427 38.5699 92.944C38.8899 92.6453 39.2845 92.496 39.7539 92.496C40.2445 92.496 40.6392 92.6453 40.9379 92.944C41.2365 93.2427 41.3859 93.6373 41.3859 94.128V108.368C41.3859 108.837 41.2365 109.232 40.9379 109.552C40.6392 109.851 40.2445 110 39.7539 110ZM39.7539 89.648C39.1779 89.648 38.6765 89.4453 38.2499 89.04C37.8445 88.6133 37.6419 88.112 37.6419 87.536C37.6419 86.96 37.8445 86.4693 38.2499 86.064C38.6765 85.6373 39.1779 85.424 39.7539 85.424C40.3299 85.424 40.8205 85.6373 41.2259 86.064C41.6525 86.4693 41.8659 86.96 41.8659 87.536C41.8659 88.112 41.6525 88.6133 41.2259 89.04C40.8205 89.4453 40.3299 89.648 39.7539 89.648ZM62.2421 110.032C61.7728 110.032 61.3781 109.883 61.0581 109.584C60.7595 109.264 60.6101 108.869 60.6101 108.4V100.528C60.6101 99.312 60.3861 98.32 59.9381 97.552C59.4901 96.784 58.8821 96.2187 58.1141 95.856C57.3675 95.472 56.5035 95.28 55.5221 95.28C54.6261 95.28 53.8155 95.4613 53.0901 95.824C52.3648 96.1867 51.7888 96.6773 51.3621 97.296C50.9355 97.8933 50.7221 98.5867 50.7221 99.376H48.7061C48.7061 98.032 49.0261 96.8373 49.6661 95.792C50.3275 94.7253 51.2235 93.8827 52.3541 93.264C53.4848 92.6453 54.7541 92.336 56.1621 92.336C57.6341 92.336 58.9461 92.656 60.0981 93.296C61.2715 93.9147 62.1888 94.832 62.8501 96.048C63.5328 97.264 63.8741 98.7573 63.8741 100.528V108.4C63.8741 108.869 63.7141 109.264 63.3941 109.584C63.0955 109.883 62.7115 110.032 62.2421 110.032ZM49.0901 110.032C48.6208 110.032 48.2261 109.883 47.9061 109.584C47.6075 109.264 47.4581 108.869 47.4581 108.4V94.128C47.4581 93.6373 47.6075 93.2427 47.9061 92.944C48.2261 92.6453 48.6208 92.496 49.0901 92.496C49.5808 92.496 49.9755 92.6453 50.2741 92.944C50.5728 93.2427 50.7221 93.6373 50.7221 94.128V108.4C50.7221 108.869 50.5728 109.264 50.2741 109.584C49.9755 109.883 49.5808 110.032 49.0901 110.032ZM77.4946 110.128C75.724 110.128 74.1453 109.755 72.7586 109.008C71.3933 108.24 70.316 107.195 69.5266 105.872C68.7586 104.528 68.3746 102.992 68.3746 101.264C68.3746 99.5147 68.7373 97.9787 69.4626 96.656C70.2093 95.312 71.2333 94.2667 72.5346 93.52C73.836 92.752 75.3293 92.368 77.0146 92.368C78.6786 92.368 80.108 92.7413 81.3026 93.488C82.4973 94.2133 83.404 95.2267 84.0226 96.528C84.6626 97.808 84.9826 99.2907 84.9826 100.976C84.9826 101.381 84.844 101.723 84.5666 102C84.2893 102.256 83.9373 102.384 83.5106 102.384H70.6146V99.824H83.4146L82.1026 100.72C82.0813 99.6533 81.868 98.704 81.4626 97.872C81.0573 97.0187 80.4813 96.3467 79.7346 95.856C78.988 95.3653 78.0813 95.12 77.0146 95.12C75.7986 95.12 74.7533 95.3867 73.8786 95.92C73.0253 96.4533 72.3746 97.1893 71.9266 98.128C71.4786 99.0453 71.2546 100.091 71.2546 101.264C71.2546 102.437 71.5213 103.483 72.0546 104.4C72.588 105.317 73.324 106.043 74.2626 106.576C75.2013 107.109 76.2786 107.376 77.4946 107.376C78.156 107.376 78.828 107.259 79.5106 107.024C80.2146 106.768 80.78 106.48 81.2066 106.16C81.5266 105.925 81.868 105.808 82.2306 105.808C82.6146 105.787 82.9453 105.893 83.2226 106.128C83.5853 106.448 83.7773 106.8 83.7986 107.184C83.82 107.568 83.6493 107.899 83.2866 108.176C82.5613 108.752 81.6546 109.221 80.5666 109.584C79.5 109.947 78.476 110.128 77.4946 110.128ZM112.122 110.032C111.652 110.032 111.258 109.883 110.938 109.584C110.639 109.264 110.49 108.869 110.49 108.4V99.248C110.49 97.904 110.159 96.912 109.498 96.272C108.836 95.6107 107.972 95.28 106.906 95.28C105.796 95.28 104.879 95.664 104.154 96.432C103.45 97.2 103.098 98.1813 103.098 99.376H100.442C100.442 97.9893 100.74 96.7733 101.338 95.728C101.935 94.6613 102.767 93.8293 103.834 93.232C104.922 92.6347 106.159 92.336 107.546 92.336C108.762 92.336 109.839 92.6027 110.778 93.136C111.716 93.6693 112.442 94.4587 112.954 95.504C113.487 96.528 113.754 97.776 113.754 99.248V108.4C113.754 108.869 113.604 109.264 113.306 109.584C113.007 109.883 112.612 110.032 112.122 110.032ZM90.7776 110.032C90.3083 110.032 89.9136 109.883 89.5936 109.584C89.295 109.264 89.1456 108.869 89.1456 108.4V94.16C89.1456 93.6693 89.295 93.2747 89.5936 92.976C89.9136 92.6773 90.3083 92.528 90.7776 92.528C91.2683 92.528 91.663 92.6773 91.9616 92.976C92.2603 93.2747 92.4096 93.6693 92.4096 94.16V108.4C92.4096 108.869 92.2603 109.264 91.9616 109.584C91.663 109.883 91.2683 110.032 90.7776 110.032ZM101.466 110.032C100.996 110.032 100.602 109.883 100.282 109.584C99.983 109.264 99.8336 108.869 99.8336 108.4V99.248C99.8336 97.904 99.503 96.912 98.8416 96.272C98.1803 95.6107 97.3163 95.28 96.2496 95.28C95.1403 95.28 94.223 95.664 93.4976 96.432C92.7723 97.2 92.4096 98.1813 92.4096 99.376H90.3936C90.3936 97.9893 90.671 96.7733 91.2256 95.728C91.7803 94.6613 92.5483 93.8293 93.5296 93.232C94.511 92.6347 95.631 92.336 96.8896 92.336C98.1056 92.336 99.183 92.6027 100.122 93.136C101.06 93.6693 101.786 94.4587 102.298 95.504C102.831 96.528 103.098 97.776 103.098 99.248V108.4C103.098 108.869 102.948 109.264 102.65 109.584C102.351 109.883 101.956 110.032 101.466 110.032ZM126.473 110.128C124.916 110.128 123.518 109.744 122.281 108.976C121.044 108.187 120.062 107.131 119.337 105.808C118.633 104.464 118.281 102.949 118.281 101.264C118.281 99.5787 118.665 98.064 119.433 96.72C120.222 95.376 121.278 94.32 122.601 93.552C123.945 92.7627 125.449 92.368 127.113 92.368C128.777 92.368 130.27 92.7627 131.593 93.552C132.916 94.32 133.961 95.376 134.729 96.72C135.518 98.064 135.913 99.5787 135.913 101.264H134.665C134.665 102.949 134.302 104.464 133.577 105.808C132.873 107.131 131.902 108.187 130.665 108.976C129.428 109.744 128.03 110.128 126.473 110.128ZM127.113 107.248C128.201 107.248 129.172 106.992 130.025 106.48C130.878 105.947 131.55 105.232 132.041 104.336C132.532 103.419 132.777 102.395 132.777 101.264C132.777 100.112 132.532 99.088 132.041 98.192C131.55 97.2747 130.878 96.56 130.025 96.048C129.172 95.5147 128.201 95.248 127.113 95.248C126.046 95.248 125.076 95.5147 124.201 96.048C123.348 96.56 122.665 97.2747 122.153 98.192C121.662 99.088 121.417 100.112 121.417 101.264C121.417 102.395 121.662 103.419 122.153 104.336C122.665 105.232 123.348 105.947 124.201 106.48C125.076 106.992 126.046 107.248 127.113 107.248ZM134.281 110.032C133.812 110.032 133.417 109.883 133.097 109.584C132.798 109.264 132.649 108.869 132.649 108.4V103.504L133.257 100.112L135.913 101.264V108.4C135.913 108.869 135.753 109.264 135.433 109.584C135.134 109.883 134.75 110.032 134.281 110.032Z" fill="black"/>
<path d="M144.291 110C143.48 110 142.755 109.776 142.115 109.328C141.496 108.88 141.005 108.261 140.643 107.472C140.301 106.683 140.131 105.765 140.131 104.72V85.968C140.131 85.6693 140.216 85.4347 140.387 85.264C140.579 85.0933 140.813 85.008 141.091 85.008C141.389 85.008 141.624 85.0933 141.795 85.264C141.965 85.4347 142.051 85.6693 142.051 85.968V104.72C142.051 105.701 142.253 106.512 142.659 107.152C143.085 107.771 143.629 108.08 144.291 108.08H145.091C145.325 108.08 145.517 108.165 145.667 108.336C145.816 108.507 145.891 108.741 145.891 109.04C145.891 109.317 145.805 109.552 145.635 109.744C145.464 109.915 145.229 110 144.931 110H144.291ZM156.427 110.192C154.72 110.192 153.184 109.808 151.819 109.04C150.475 108.251 149.408 107.184 148.619 105.84C147.851 104.475 147.467 102.949 147.467 101.264C147.467 99.5573 147.851 98.032 148.619 96.688C149.408 95.3227 150.475 94.256 151.819 93.488C153.184 92.6987 154.72 92.304 156.427 92.304C158.134 92.304 159.659 92.6987 161.003 93.488C162.347 94.256 163.403 95.3227 164.171 96.688C164.96 98.032 165.355 99.5573 165.355 101.264L164.555 102.544C164.555 103.995 164.192 105.296 163.467 106.448C162.763 107.6 161.803 108.517 160.587 109.2C159.371 109.861 157.984 110.192 156.427 110.192ZM156.427 108.4C157.771 108.4 158.966 108.091 160.011 107.472C161.078 106.832 161.91 105.979 162.507 104.912C163.126 103.824 163.435 102.608 163.435 101.264C163.435 99.8987 163.126 98.6827 162.507 97.616C161.91 96.528 161.078 95.6747 160.011 95.056C158.966 94.416 157.771 94.096 156.427 94.096C155.104 94.096 153.91 94.416 152.843 95.056C151.776 95.6747 150.934 96.528 150.315 97.616C149.696 98.6827 149.387 99.8987 149.387 101.264C149.387 102.608 149.696 103.824 150.315 104.912C150.934 105.979 151.776 106.832 152.843 107.472C153.91 108.091 155.104 108.4 156.427 108.4ZM164.395 110C164.118 110 163.883 109.915 163.691 109.744C163.52 109.552 163.435 109.317 163.435 109.04V103.184L164.043 101.264H165.355V109.04C165.355 109.317 165.27 109.552 165.099 109.744C164.928 109.915 164.694 110 164.395 110ZM179.074 110.192C177.41 110.192 175.906 109.808 174.562 109.04C173.218 108.272 172.151 107.227 171.362 105.904C170.594 104.581 170.188 103.088 170.146 101.424V85.968C170.146 85.6693 170.231 85.4347 170.402 85.264C170.594 85.0933 170.828 85.008 171.106 85.008C171.404 85.008 171.639 85.0933 171.81 85.264C171.98 85.4347 172.066 85.6693 172.066 85.968V95.952C172.748 94.8427 173.698 93.9573 174.914 93.296C176.151 92.6347 177.538 92.304 179.074 92.304C180.78 92.304 182.306 92.6987 183.65 93.488C185.015 94.256 186.082 95.312 186.85 96.656C187.639 98 188.034 99.5253 188.034 101.232C188.034 102.939 187.639 104.475 186.85 105.84C186.082 107.184 185.015 108.251 183.65 109.04C182.306 109.808 180.78 110.192 179.074 110.192ZM179.074 108.4C180.418 108.4 181.612 108.091 182.658 107.472C183.724 106.832 184.567 105.979 185.186 104.912C185.804 103.824 186.114 102.597 186.114 101.232C186.114 99.8667 185.804 98.6507 185.186 97.584C184.567 96.5173 183.724 95.6747 182.658 95.056C181.612 94.416 180.418 94.096 179.074 94.096C177.751 94.096 176.556 94.416 175.49 95.056C174.423 95.6747 173.58 96.5173 172.962 97.584C172.364 98.6507 172.066 99.8667 172.066 101.232C172.066 102.597 172.364 103.824 172.962 104.912C173.58 105.979 174.423 106.832 175.49 107.472C176.556 108.091 177.751 108.4 179.074 108.4Z" fill="#888888"/>
</g>
<defs>
<clipPath id="clip0_43_11">
<rect width="200" height="200" fill="white"/>
</clipPath>
</defs>
</svg>
